<svg width="303" height="481" viewBox="0 0 303 481" fill="none" xmlns="http://www.w3.org/2000/svg">
<g filter="url(#filter0_d_233_141)">
<path fill-rule="evenodd" clip-rule="evenodd" d="M201.151 308.438C201.764 321.277 198.076 356.258 196.538 380.168C196.533 380.168 140.344 380.241 140.338 380.241C144.285 337.7 148.808 295.718 148.808 295.709C147.632 295.186 149.544 280.785 152.28 275.164C155.989 267.542 163.394 256.4 171.683 254.62C178.816 253.088 189.594 257.901 194.35 263.434C203.253 273.788 200.763 300.308 201.151 308.438Z" fill="#FABE1F"/>
<path fill-rule="evenodd" clip-rule="evenodd" d="M166.415 172.345C186.652 177.346 217.736 212.709 223.614 211.801C226.158 211.407 243.013 199.453 245.007 190.651C245.546 188.274 242.754 185.107 243.245 182.72C244.632 175.969 252.309 162.255 258.409 165.462C259.995 166.296 260.654 168.115 259.663 171.302C258.92 173.688 255.316 176.441 256.08 178.82C256.257 179.373 257.361 180.043 257.563 180.063C258.861 180.19 264.264 174.423 266.558 171.483C268.741 168.685 270.475 164.469 272.413 161.204C273.35 159.629 277.585 156.545 279.844 157.572C282.101 158.598 282.875 163.237 281.991 165.552C280.875 168.471 279.317 171.871 277.798 174.379C276.865 175.922 274.224 179.209 274.227 179.214C274.231 179.22 279.425 176.237 281.204 174.427C283.416 172.176 285.157 168.778 287.387 166.514C288.845 165.035 293.089 162.125 295.211 163.48C297.318 164.825 296.732 169.396 295.768 171.791C294.434 175.105 292.768 177.413 290.323 180.314C287.947 183.132 283.042 186.906 283.066 186.933C283.076 186.945 284.161 187.387 287.547 186.035C288.936 185.481 290.79 184.673 291.998 183.791C293.38 182.782 297.244 182.068 298.456 183.581C300.037 185.553 297.878 190.209 295.74 191.557C294.1 192.591 291.875 194.05 290.196 195.08C288.386 196.19 285.285 197.994 284.108 198.683C281.113 200.435 278.356 204.398 275.659 206.579C274.023 207.903 270.118 210.486 269.931 210.627C268.399 211.772 239.788 245.632 225.305 246.649C210.508 247.689 188.301 228.041 175.105 216.43C167.246 209.515 155.697 199.559 152.978 189.451C151.661 184.559 150.828 175.902 154.717 172.655C157.267 170.526 163.007 171.503 166.415 172.345Z" fill="#FFCB1F"/>
<path fill-rule="evenodd" clip-rule="evenodd" d="M103.111 160.743C100.418 164.978 96.7408 218.26 96.6382 243.019C96.5823 256.433 92.5881 276.092 99.402 287.647C111.507 308.175 130.849 309.619 146.519 310.305C160.505 310.917 181.018 304.7 190.338 294.254C198.008 285.655 201.733 276.966 200.117 257.111C199.595 250.687 190.261 238.712 189.344 236.645C187.233 231.892 176.313 201.732 171.627 186.473C168.688 176.907 163.566 154.8 163.044 154.24C162.484 153.638 148.832 140.519 129.115 142.882C112.968 144.818 104.141 159.124 103.111 160.743Z" fill="#FFCB1F"/>
<path fill-rule="evenodd" clip-rule="evenodd" d="M101.123 172.887C101.129 172.888 169.828 180.738 169.835 180.739C169.833 180.734 156.432 127.613 156.431 127.607C156.424 127.611 88.9655 157.553 88.9585 157.556C88.9593 157.558 101.121 172.885 101.123 172.887Z" fill="#EC6138"/>
<path fill-rule="evenodd" clip-rule="evenodd" d="M4.03321 76.7273C3.36558 64.9664 12.8516 55.063 24.6249 54.655L230.954 47.4913C242.729 47.0825 252.622 56.3097 253.027 68.083C253.027 68.083 253.76 89.1675 254.454 109.175C255.111 128.092 255.735 146.058 255.735 146.058C256.143 157.832 246.922 168.367 235.143 168.131C235.143 168.131 212.38 168.921 202.624 169.26C161.436 170.69 113.727 172.346 65.3295 174.027C43.8549 174.772 28.8134 175.294 28.8134 175.294C17.04 175.703 6.78457 166.483 6.74027 154.703C6.74027 154.703 5.90087 130.517 5.54102 120.151C5.08868 107.124 4.03321 76.7273 4.03321 76.7273Z" fill="#FFCB1F"/>
<path fill-rule="evenodd" clip-rule="evenodd" d="M75.0867 389.235C75.089 389.223 90.3023 311.656 97.288 278.504C100.195 264.706 113.425 255.311 124.242 254.329C146.091 252.345 151.377 277.272 151.726 278.047C152.89 280.634 136.151 398.173 136.15 398.184C136.144 398.183 75.0929 389.235 75.0867 389.235Z" fill="#FFCB1F"/>
<path d="M136.15 398.184C136.144 398.184 75.0929 389.235 75.0867 389.235" stroke="#FCEDE8" stroke-linejoin="round"/>
<path fill-rule="evenodd" clip-rule="evenodd" d="M134.58 413.376C134.58 413.374 135.626 403.248 136.15 398.184C136.144 398.184 75.0929 389.235 75.0867 389.235C73.9893 394.085 71.7952 403.785 71.7944 403.786C71.8014 403.788 134.574 413.374 134.58 413.376Z" fill="#FCEDE8"/>
<path d="M134.58 413.376C134.574 413.374 71.8014 403.788 71.7944 403.786" stroke="#01A374" stroke-linejoin="round"/>
<path fill-rule="evenodd" clip-rule="evenodd" d="M130.016 472.594C130.016 472.588 133.058 433.115 134.58 413.376C134.574 413.374 71.8014 403.788 71.7944 403.786C71.7944 403.788 68.5961 417.727 68.391 417.909C68.3886 417.91 51.7009 421.467 44.5684 429.37C28.19 447.517 26.4716 471.649 26.47 471.653C26.4801 471.653 130.005 472.594 130.016 472.594Z" fill="#01A374"/>
<path fill-rule="evenodd" clip-rule="evenodd" d="M195.951 398.428C195.946 398.428 157.099 399.378 137.673 399.853C137.672 399.86 133.335 470.19 133.447 470.333C133.639 470.578 243.576 472.045 243.587 472.045C243.587 472.041 241.998 442.645 234.596 433.024C226.68 422.734 215.563 412.332 196.602 413.265C196.385 408.32 195.952 398.43 195.951 398.428Z" fill="#01A374"/>
<path d="M196.538 380.167C196.533 380.167 140.344 380.24 140.338 380.24" stroke="#FCEDE8" stroke-linejoin="round"/>
<path d="M140.337 380.24C139.692 387.196 137.673 399.852 137.673 399.854" stroke="#FCEDE8" stroke-linejoin="round"/>
<path d="M137.673 399.854C157.099 399.379 195.946 398.429 195.951 398.429" stroke="#FCEDE8" stroke-linejoin="round"/>
<path fill-rule="evenodd" clip-rule="evenodd" d="M195.951 398.429C196.147 392.342 196.538 380.17 196.538 380.167C196.533 380.167 140.344 380.24 140.337 380.24C139.692 387.196 137.673 399.852 137.673 399.853C157.099 399.379 195.946 398.429 195.951 398.429Z" fill="#FCEDE8"/>
<path fill-rule="evenodd" clip-rule="evenodd" d="M102.982 260.616C100.722 262.859 104.296 269.697 106.893 273.247C109.675 277.048 117.551 281.178 116.397 285.744C115.831 287.982 112.225 289.647 109.933 289.915C105.497 290.432 100.107 286.286 96.2729 283.995C93.5978 282.396 89.3969 278.636 88.0632 277.631C83.0081 273.82 64.759 262.64 56.229 254.472C49.2861 247.825 36.1285 239.125 36.1378 229.513C36.1541 211.983 78.2197 182.256 97.3696 173.998C103.01 171.565 113.687 172.173 117.643 176.873C121.608 181.586 118.395 194.107 117.001 197.393C113.635 205.33 79.8277 228.764 80.0111 230.407C80.092 231.127 94.9035 243.312 96.8123 244.2C98.1802 244.837 108.31 244.53 112.081 247.291C116.859 250.788 124.162 259.587 121.273 264.756C120.194 266.686 116.377 267.276 114.207 266.852C111.196 266.264 109.371 261.123 106.448 260.191C105.425 259.866 103.726 259.879 102.982 260.616Z" fill="#FFCB1F"/>
<path d="M102.982 260.617C100.722 262.859 104.296 269.698 106.893 273.247C109.675 277.048 117.551 281.178 116.397 285.744C115.831 287.982 112.225 289.647 109.933 289.915C105.497 290.432 100.107 286.287 96.2729 283.995M96.8123 244.2C98.1802 244.837 108.31 244.531 112.081 247.291C116.859 250.788 124.162 259.588 121.273 264.756C120.194 266.686 116.377 267.276 114.207 266.852C111.196 266.264 109.371 261.123 106.448 260.192C105.426 259.866 103.726 259.879 102.982 260.617" stroke="black" stroke-width="4" stroke-linecap="round" stroke-linejoin="round"/>
<path fill-rule="evenodd" clip-rule="evenodd" d="M70.5788 111.443C70.5765 104.332 76.3792 97.9397 83.4636 98.5592C83.4636 98.5592 85.3468 98.5592 86.1543 98.5592C95.7336 98.5592 118.084 98.5592 118.084 98.5592C125.195 98.5374 130.972 104.332 130.969 111.443V112.482C130.969 118.953 126.188 124.316 119.907 125.237C119.353 125.319 118.725 125.366 118.084 125.366C118.084 125.366 95.3698 125.366 86.6743 125.366C84.7134 125.366 83.4636 125.366 83.4636 125.366C76.3528 125.366 70.5788 119.592 70.5788 112.482V111.443Z" fill="white"/>
<path fill-rule="evenodd" clip-rule="evenodd" d="M139.821 107.351C139.818 100.24 145.595 94.4199 152.705 94.4665C152.705 94.4665 173.181 94.4665 181.955 94.4665C183.567 94.4665 187.326 94.4665 187.326 94.4665C194.42 93.9637 200.214 100.24 200.211 107.351V108.389C200.211 115.5 194.438 121.274 187.326 121.274C187.326 121.274 186.197 121.274 184.293 121.274C177.384 121.274 160.21 121.274 154.526 121.274C153.384 121.274 152.705 121.274 152.705 121.274C145.595 121.274 139.821 115.5 139.821 108.389V107.351Z" fill="white"/>
<path d="M86.6742 125.365C95.3697 125.365 118.084 125.365 118.084 125.365" stroke="white" stroke-linejoin="round"/>
<path d="M118.084 125.366C118.725 125.366 119.353 125.319 119.908 125.237" stroke="white" stroke-linejoin="round"/>
<path d="M118.084 98.5591C118.084 98.5591 95.7337 98.5591 86.1544 98.5591" stroke="white" stroke-linejoin="round"/>
<path fill-rule="evenodd" clip-rule="evenodd" d="M86.1544 98.5591C86.3277 107.495 86.5011 116.43 86.6744 125.365C95.3699 125.365 118.084 125.365 118.084 125.365C118.725 125.365 119.353 125.319 119.908 125.237C119.3 116.345 118.692 107.452 118.084 98.5591C118.084 98.5591 95.7337 98.5591 86.1544 98.5591Z" fill="white"/>
<path d="M154.526 121.273C160.21 121.273 177.384 121.273 184.293 121.273" stroke="white" stroke-linejoin="round"/>
<path d="M181.955 94.4666C173.181 94.4666 152.705 94.4666 152.705 94.4666" stroke="white" stroke-linejoin="round"/>
<path fill-rule="evenodd" clip-rule="evenodd" d="M152.705 94.4666C153.312 103.402 153.919 112.338 154.526 121.274C160.21 121.274 177.384 121.274 184.293 121.274C183.514 112.338 182.735 103.402 181.955 94.4666C173.181 94.4666 152.705 94.4666 152.705 94.4666Z" fill="white"/>
<path d="M139.821 108.389V107.351" stroke="white" stroke-linejoin="round"/>
<path d="M139.821 107.35C139.818 100.239 145.595 94.4195 152.705 94.4661" stroke="white" stroke-linejoin="round"/>
<path d="M152.705 94.4666C153.312 103.402 153.919 112.338 154.526 121.274" stroke="white" stroke-linejoin="round"/>
<path d="M154.526 121.273C153.384 121.273 152.705 121.273 152.705 121.273" stroke="white" stroke-linejoin="round"/>
<path d="M152.705 121.273C145.595 121.273 139.821 115.499 139.821 108.389" stroke="white" stroke-linejoin="round"/>
<path fill-rule="evenodd" clip-rule="evenodd" d="M139.821 108.388V107.35C139.818 100.239 145.595 94.4195 152.705 94.4661C153.312 103.402 153.919 112.338 154.526 121.273C153.384 121.273 152.705 121.273 152.705 121.273C145.595 121.273 139.821 115.499 139.821 108.388Z" fill="white"/>
<path d="M181.955 94.4666C182.735 103.402 183.514 112.338 184.293 121.274" stroke="white" stroke-linejoin="round"/>
<path d="M184.293 121.273C186.197 121.273 187.326 121.273 187.326 121.273" stroke="white" stroke-linejoin="round"/>
<path d="M187.326 121.273C194.437 121.273 200.211 115.499 200.211 108.389" stroke="white" stroke-linejoin="round"/>
<path d="M200.211 108.389V107.351" stroke="white" stroke-linejoin="round"/>
<path d="M200.211 107.351C200.214 100.24 194.42 93.9637 187.326 94.4665" stroke="white" stroke-linejoin="round"/>
<path d="M187.326 94.4666C187.326 94.4666 183.567 94.4666 181.955 94.4666" stroke="white" stroke-linejoin="round"/>
<path fill-rule="evenodd" clip-rule="evenodd" d="M181.955 94.4665C182.735 103.402 183.514 112.338 184.293 121.274C186.197 121.274 187.326 121.274 187.326 121.274C194.437 121.274 200.211 115.5 200.211 108.389V107.351C200.214 100.24 194.42 93.9637 187.326 94.4665C187.326 94.4665 183.567 94.4665 181.955 94.4665Z" fill="white"/>
<path d="M70.5788 112.482V111.444" stroke="white" stroke-linejoin="round"/>
<path d="M70.5788 111.443C70.5765 104.332 76.3792 97.9397 83.4636 98.5592" stroke="white" stroke-linejoin="round"/>
<path d="M83.4636 98.5591C83.4636 98.5591 85.3468 98.5591 86.1543 98.5591" stroke="white" stroke-linejoin="round"/>
<path d="M86.1544 98.5591C86.3277 107.495 86.5011 116.43 86.6744 125.365" stroke="white" stroke-linejoin="round"/>
<path d="M86.6743 125.365C84.7134 125.365 83.4636 125.365 83.4636 125.365" stroke="white" stroke-linejoin="round"/>
<path d="M83.4636 125.366C76.3528 125.366 70.5788 119.592 70.5788 112.482" stroke="white" stroke-linejoin="round"/>
<path fill-rule="evenodd" clip-rule="evenodd" d="M70.5788 112.482V111.443C70.5765 104.332 76.3792 97.9397 83.4636 98.5592C83.4636 98.5592 85.3468 98.5592 86.1543 98.5592C86.3276 107.495 86.501 116.431 86.6743 125.366C84.7134 125.366 83.4636 125.366 83.4636 125.366C76.3528 125.366 70.5788 119.592 70.5788 112.482Z" fill="white"/>
<path d="M118.084 98.5591C118.692 107.452 119.3 116.345 119.908 125.237" stroke="white" stroke-linejoin="round"/>
<path d="M119.908 125.237C126.188 124.316 130.969 118.953 130.969 112.482" stroke="white" stroke-linejoin="round"/>
<path d="M130.969 112.482V111.444" stroke="white" stroke-linejoin="round"/>
<path d="M130.969 111.443C130.972 104.332 125.195 98.5374 118.084 98.5591" stroke="white" stroke-linejoin="round"/>
<path fill-rule="evenodd" clip-rule="evenodd" d="M118.084 98.5591C118.692 107.452 119.3 116.345 119.908 125.237C126.188 124.316 130.969 118.953 130.969 112.481V111.443C130.972 104.332 125.195 98.5374 118.084 98.5591Z" fill="white"/>
<path fill-rule="evenodd" clip-rule="evenodd" d="M114.091 129.904C115.249 129.093 117.746 129.155 118.799 130.099C122.212 133.155 125.981 143.975 138.353 142.807C150.609 141.65 152.074 132.447 153.648 129.903C154.627 128.32 156.274 126.096 159.017 126.795C161.674 127.47 162.257 130.103 162.177 131.903C161.76 141.235 152.631 151.239 138.232 151.811C126.129 152.292 114.993 144.003 112.561 135.15C112.145 133.637 112.749 130.846 114.091 129.904Z" fill="#FF92A7"/>
<path fill-rule="evenodd" clip-rule="evenodd" d="M70.7538 68.7415C70.7538 68.7422 69.3307 76.0613 69.3307 76.0621C69.3346 76.0613 110.602 69.1495 110.607 69.1487C110.603 69.1487 70.7577 68.7415 70.7538 68.7415Z" fill="black"/>
<path fill-rule="evenodd" clip-rule="evenodd" d="M150.662 67.5218C150.663 67.521 153.509 61.4222 153.509 61.4214C153.511 61.4222 178.312 65.0813 178.316 65.0821C178.312 65.0821 150.665 67.521 150.662 67.5218Z" fill="black"/>
<path fill-rule="evenodd" clip-rule="evenodd" d="M145.349 50.3305C145.351 50.3289 159.857 39.8994 159.828 31.4852C159.773 16.062 129.725 0.00310888 129.721 0C129.726 0.00310888 176.7 6.42373 176.145 29.187C175.776 44.3295 145.352 50.3281 145.349 50.3305Z" fill="#FFCB1F"/>
<path d="M65.3295 174.027C43.8549 174.772 28.8134 175.294 28.8134 175.294" stroke="#FF92A7" stroke-linejoin="round"/>
<path d="M28.8135 175.294C17.0402 175.703 6.78472 166.483 6.74042 154.703" stroke="#FF92A7" stroke-linejoin="round"/>
<path d="M6.74027 154.703C6.74027 154.703 5.90087 130.517 5.54102 120.151" stroke="#FF92A7" stroke-linejoin="round"/>
<path fill-rule="evenodd" clip-rule="evenodd" d="M48.4941 130.089C67.5453 146.553 65.3279 174.022 65.3295 174.026C43.8549 174.772 28.8133 175.294 28.8133 175.294C17.04 175.703 6.78457 166.483 6.74027 154.702C6.74027 154.702 5.90087 130.517 5.54102 120.151C5.54568 120.152 30.6437 114.663 48.4941 130.089Z" fill="#FF92A7"/>
<path d="M254.454 109.175C255.111 128.092 255.735 146.058 255.735 146.058" stroke="#FF92A7" stroke-linejoin="round"/>
<path d="M255.734 146.058C256.143 157.832 246.922 168.367 235.143 168.131" stroke="#FF92A7" stroke-linejoin="round"/>
<path d="M235.143 168.131C235.143 168.131 212.38 168.921 202.624 169.26" stroke="#FF92A7" stroke-linejoin="round"/>
<path fill-rule="evenodd" clip-rule="evenodd" d="M216.608 126.575C233.792 107.432 254.451 109.176 254.454 109.174C255.111 128.092 255.735 146.057 255.735 146.057C256.143 157.831 246.922 168.367 235.143 168.13C235.143 168.13 212.38 168.921 202.624 169.26C202.626 169.255 198.079 147.218 216.608 126.575Z" fill="#FF92A7"/>
<path d="M86.1544 98.5591C86.3277 107.495 86.5011 116.43 86.6744 125.365" stroke="black" stroke-linejoin="round"/>
<path d="M86.6742 125.365C95.3697 125.365 118.084 125.365 118.084 125.365" stroke="black" stroke-linejoin="round"/>
<path d="M118.084 125.366C118.725 125.366 119.353 125.319 119.908 125.237" stroke="black" stroke-linejoin="round"/>
<path d="M119.908 125.237C119.3 116.345 118.692 107.452 118.084 98.5591" stroke="black" stroke-linejoin="round"/>
<path d="M118.084 98.5591C118.084 98.5591 95.7337 98.5591 86.1544 98.5591" stroke="black" stroke-linejoin="round"/>
<path fill-rule="evenodd" clip-rule="evenodd" d="M86.1544 98.5591C86.3277 107.495 86.5011 116.43 86.6744 125.365C95.3699 125.365 118.084 125.365 118.084 125.365C118.725 125.365 119.353 125.319 119.908 125.237C119.3 116.345 118.692 107.452 118.084 98.5591C118.084 98.5591 95.7337 98.5591 86.1544 98.5591Z" fill="black"/>
<path d="M152.705 94.4666C153.312 103.402 153.919 112.338 154.526 121.274" stroke="black" stroke-linejoin="round"/>
<path d="M154.526 121.273C160.21 121.273 177.384 121.273 184.293 121.273" stroke="black" stroke-linejoin="round"/>
<path d="M184.293 121.274C183.514 112.338 182.735 103.402 181.955 94.4666" stroke="black" stroke-linejoin="round"/>
<path d="M181.955 94.4666C173.181 94.4666 152.705 94.4666 152.705 94.4666" stroke="black" stroke-linejoin="round"/>
<path fill-rule="evenodd" clip-rule="evenodd" d="M152.705 94.4666C153.312 103.402 153.919 112.338 154.526 121.274C160.21 121.274 177.384 121.274 184.293 121.274C183.514 112.338 182.735 103.402 181.955 94.4666C173.181 94.4666 152.705 94.4666 152.705 94.4666Z" fill="black"/>
<path d="M116.011 133.439C116.013 133.44 120.463 148.195 138.073 147.168C155.527 146.151 158.228 131.139 158.231 131.137" stroke="black" stroke-width="3" stroke-linecap="round" stroke-linejoin="round"/>
<path fill-rule="evenodd" clip-rule="evenodd" d="M97.3767 221.027C97.3783 221.026 114.446 201.145 114.448 201.144C114.446 201.145 97.4319 215.957 97.4304 215.958C97.4304 215.959 97.3767 221.027 97.3767 221.027Z" fill="#EC6138"/>
<path fill-rule="evenodd" clip-rule="evenodd" d="M179.317 210.224C179.317 210.225 185.112 225.387 185.112 225.389C185.113 225.39 196.263 233.881 196.264 233.882C196.262 233.881 179.318 210.226 179.317 210.224Z" fill="#EC6138"/>
<path fill-rule="evenodd" clip-rule="evenodd" d="M147.972 311.71C147.975 311.708 167.349 296.232 167.351 296.231C167.349 296.231 149.706 300.976 149.704 300.977C149.704 300.978 147.973 311.709 147.972 311.71Z" fill="#EC6138"/>
</g>
<defs>
<filter id="filter0_d_233_141" x="0" y="0" width="303" height="480.594" filterUnits="userSpaceOnUse" color-interpolation-filters="sRGB">
<feFlood flood-opacity="0" result="BackgroundImageFix"/>
<feColorMatrix in="SourceAlpha" type="matrix" values="0 0 0 0 0 0 0 0 0 0 0 0 0 0 0 0 0 0 127 0" result="hardAlpha"/>
<feOffset dy="4"/>
<feGaussianBlur stdDeviation="2"/>
<feComposite in2="hardAlpha" operator="out"/>
<feColorMatrix type="matrix" values="0 0 0 0 0 0 0 0 0 0 0 0 0 0 0 0 0 0 0.25 0"/>
<feBlend mode="normal" in2="BackgroundImageFix" result="effect1_dropShadow_233_141"/>
<feBlend mode="normal" in="SourceGraphic" in2="effect1_dropShadow_233_141" result="shape"/>
</filter>
</defs>
</svg>
